<?xml version="1.0" standalone="no"?><!DOCTYPE svg PUBLIC "-//W3C//DTD SVG 1.1//EN" "http://www.w3.org/Graphics/SVG/1.1/DTD/svg11.dtd"><svg t="1721633568692" class="icon" viewBox="0 0 1024 1024" version="1.1" xmlns="http://www.w3.org/2000/svg" p-id="1691" xmlns:xlink="http://www.w3.org/1999/xlink" width="200" height="200"><path d="M672.089766 552.893506V161.406338C672.089766 73.142857 600.276779 1.32987 512 1.32987c-88.263481 0-160.089766 71.812987-160.089766 160.076468v391.487168a262.396675 262.396675 0 0 0-102.054234 207.619325c0 144.636675 117.520623 262.157299 262.144 262.157299s262.144-117.533922 262.144-262.157299c0-81.441247-37.901299-158.081662-102.067532-207.619325zM512 974.95439c-118.185558 0-214.441558-96.242701-214.441558-214.42826a214.907013 214.907013 0 0 1 92.425974-176.380675l11.303896-7.806338-1.170286-13.804052a102.001039 102.001039 0 0 1-0.492052-9.801143V161.406338c0-61.998545 50.362182-112.374026 112.374026-112.374026 62.011844 0 112.374026 50.375481 112.374026 112.374026v391.487168c0 2.992208-0.172883 6.144-0.505351 9.801143l-1.156987 13.804052 11.303896 7.806338a214.694234 214.694234 0 0 1 92.425974 176.380675c0 118.025974-96.242701 214.268675-214.441558 214.268676z" fill="#000000" p-id="1692"></path><path d="M563.027117 616.062338v-345.766234a51.040416 51.040416 0 0 0-51.027117-51.027117 51.146805 51.146805 0 0 0-51.027117 51.027117v345.766234c-59.511688 21.105039-102.067532 77.797403-102.067532 144.450493 0 84.619636 68.647896 153.280831 153.267532 153.280831 84.606338 0 153.267532-68.661195 153.267533-153.267532-0.172883-66.66639-42.888312-123.358753-102.4-144.463792zM171.553247 83.116883c0 22.607792 15.293506 40.893506 34.084571 40.893507 18.777766 0 34.071273-18.285714 34.071273-40.893507 0-22.607792-34.071273-81.787013-34.071273-81.787013S171.553247 60.509091 171.553247 83.116883zM1.32987 550.566234c0 35.081974 24.429714 63.501299 54.524675 63.501298s54.524675-28.419325 54.524676-63.501298c0-35.068675-54.524675-127.175481-54.524676-127.175481S1.32987 515.510857 1.32987 550.566234z m922.597403-358.559585S825.184416 346.431169 825.184416 405.264623c0 58.846753 44.218182 106.722078 98.742857 106.722078s98.742857-47.702442 98.742857-106.722078c0-59.019636-98.742857-213.284571-98.742857-213.284571z" fill="#000000" p-id="1693"></path></svg>